HIERARCHY
ROOT hip
{
  OFFSET 0 0 0
  CHANNELS 6 Xposition Yposition Zposition Zrotation Yrotation Xrotation
  JOINT abdomen
  {
    OFFSET 0 20.6881 -0.73152
    CHANNELS 3 Zrotation Xrotation Yrotation
    JOINT chest
    {
      OFFSET 0 11.7043 -0.48768
      CHANNELS 3 Zrotation Xrotation Yrotation
      JOINT neck
      {
        OFFSET 0 22.1894 -2.19456
        CHANNELS 3 Zrotation Xrotation Yrotation
        JOINT head
        {
          OFFSET -0.24384 7.07133 1.2192
          CHANNELS 3 Zrotation Xrotation Yrotation
          JOINT leftEye
          {
            OFFSET 4.14528 8.04674 8.04672
            CHANNELS 3 Zrotation Xrotation Yrotation
            End Site
            {
              OFFSET 1 0 0
            }
          }
          JOINT rightEye
          {
            OFFSET -3.6576 8.04674 8.04672
            CHANNELS 3 Zrotation Xrotation Yrotation
            End Site
            {
              OFFSET 1 0 0
            }
          }
        }
      }
      JOINT rCollar
      {
        OFFSET -2.68224 19.2634 -4.8768
        CHANNELS 3 Zrotation Xrotation Yrotation
        JOINT rShldr
        {
          OFFSET -8.77824 -1.95073 1.46304
          CHANNELS 3 Zrotation Xrotation Yrotation
          JOINT rForeArm
          {
            OFFSET -28.1742 -1.7115 0.48768
            CHANNELS 3 Zrotation Xrotation Yrotation
            JOINT rHand
            {
              OFFSET -22.5879 0.773209 7.07136
              CHANNELS 3 Zrotation Xrotation Yrotation
              JOINT rThumb1
              {
                OFFSET -1.2192 -0.487915 3.41376
                CHANNELS 3 Zrotation Xrotation Yrotation
                JOINT rThumb2
                {
                  OFFSET -3.37035 -0.52449 3.41376
                  CHANNELS 3 Zrotation Xrotation Yrotation
                  End Site
                  {
                    OFFSET -1.78271 -1.18214 1.43049
                  }
                }
              }
              JOINT rIndex1
              {
                OFFSET -7.75947 0.938293 5.60832
                CHANNELS 3 Zrotation Xrotation Yrotation
                JOINT rIndex2
                {
                  OFFSET -2.54057 -0.884171 1.56538
                  CHANNELS 3 Zrotation Xrotation Yrotation
                  End Site
                  {
                    OFFSET -1.62519 -0.234802 1.16502
                  }
                }
              }
              JOINT rMid1
              {
                OFFSET -8.24714 1.18213 3.41376
                CHANNELS 3 Zrotation Xrotation Yrotation
                JOINT rMid2
                {
                  OFFSET -3.10165 -0.590103 1.0647
                  CHANNELS 3 Zrotation Xrotation Yrotation
                  End Site
                  {
                    OFFSET -2.48547 -0.328903 0.83742
                  }
                }
              }
              JOINT rRing1
              {
                OFFSET -8.82822 0.546677 1.51678
                CHANNELS 3 Zrotation Xrotation Yrotation
                JOINT rRing2
                {
                  OFFSET -2.60934 -0.819778 -0.0198488
                  CHANNELS 3 Zrotation Xrotation Yrotation
                  End Site
                  {
                    OFFSET -2.33842 -0.294052 0.168128
                  }
                }
              }
              JOINT rPinky1
              {
                OFFSET -8.27202 -0.0477905 -0.4584
                CHANNELS 3 Zrotation Xrotation Yrotation
                JOINT rPinky2
                {
                  OFFSET -1.82734 -0.647385 -0.700984
                  CHANNELS 3 Zrotation Xrotation Yrotation
                  End Site
                  {
                    OFFSET -1.69225 -0.51767 -0.607171
                  }
                }
              }
            }
          }
        }
      }
      JOINT lCollar
      {
        OFFSET 2.68224 19.2634 -4.8768
        CHANNELS 3 Zrotation Xrotation Yrotation
        JOINT lShldr
        {
          OFFSET 8.77824 -1.95073 1.46304
          CHANNELS 3 Zrotation Xrotation Yrotation
          JOINT lForeArm
          {
            OFFSET 28.1742 -1.7115 0.48768
            CHANNELS 3 Zrotation Xrotation Yrotation
            JOINT lHand
            {
              OFFSET 22.5879 0.773209 7.07136
              CHANNELS 3 Zrotation Xrotation Yrotation
              JOINT lThumb1
              {
                OFFSET 1.2192 -0.487915 3.41376
                CHANNELS 3 Zrotation Xrotation Yrotation
                JOINT lThumb2
                {
                  OFFSET 3.37035 -0.52449 3.41376
                  CHANNELS 3 Zrotation Xrotation Yrotation
                  End Site
                  {
                    OFFSET 1.78271 -1.18214 1.43049
                  }
                }
              }
              JOINT lIndex1
              {
                OFFSET 7.75947 0.938293 5.60832
                CHANNELS 3 Zrotation Xrotation Yrotation
                JOINT lIndex2
                {
                  OFFSET 2.54057 -0.884171 1.56538
                  CHANNELS 3 Zrotation Xrotation Yrotation
                  End Site
                  {
                    OFFSET 1.62519 -0.234802 1.16502
                  }
                }
              }
              JOINT lMid1
              {
                OFFSET 8.24714 1.18213 3.41376
                CHANNELS 3 Zrotation Xrotation Yrotation
                JOINT lMid2
                {
                  OFFSET 3.10165 -0.590103 1.0647
                  CHANNELS 3 Zrotation Xrotation Yrotation
                  End Site
                  {
                    OFFSET 2.48547 -0.328903 0.83742
                  }
                }
              }
              JOINT lRing1
              {
                OFFSET 8.82822 0.546677 1.51678
                CHANNELS 3 Zrotation Xrotation Yrotation
                JOINT lRing2
                {
                  OFFSET 2.60934 -0.819778 -0.0198488
                  CHANNELS 3 Zrotation Xrotation Yrotation
                  End Site
                  {
                    OFFSET 2.33842 -0.294052 0.168128
                  }
                }
              }
              JOINT lPinky1
              {
                OFFSET 8.27202 -0.0477905 -0.4584
                CHANNELS 3 Zrotation Xrotation Yrotation
                JOINT lPinky2
                {
                  OFFSET 1.82734 -0.647385 -0.700984
                  CHANNELS 3 Zrotation Xrotation Yrotation
                  End Site
                  {
                    OFFSET 1.69225 -0.51767 -0.607171
                  }
                }
              }
            }
          }
        }
      }
    }
  }
  JOINT rButtock
  {
    OFFSET -8.77824 4.35084 1.2192
    CHANNELS 3 Zrotation Xrotation Yrotation
    JOINT rThigh
    {
      OFFSET 0 -1.70687 -2.19456
      CHANNELS 3 Zrotation Xrotation Yrotation
      JOINT rShin
      {
        OFFSET 0 -36.8199 0.73152
        CHANNELS 3 Zrotation Xrotation Yrotation
        JOINT rFoot
        {
          OFFSET 0.73152 -45.1104 -5.12064
          CHANNELS 3 Zrotation Xrotation Yrotation
          End Site
          {
            OFFSET -1.1221 -3.69964 12.103
          }
        }
      }
    }
  }
  JOINT lButtock
  {
    OFFSET 8.77824 4.35084 1.2192
    CHANNELS 3 Zrotation Xrotation Yrotation
    JOINT lThigh
    {
      OFFSET 0 -1.70687 -2.19456
      CHANNELS 3 Zrotation Xrotation Yrotation
      JOINT lShin
      {
        OFFSET 0 -36.8199 0.73152
        CHANNELS 3 Zrotation Xrotation Yrotation
        JOINT lFoot
        {
          OFFSET -0.73152 -45.1104 -5.12064
          CHANNELS 3 Zrotation Xrotation Yrotation
          End Site
          {
            OFFSET 1.1221 -3.69964 12.103
          }
        }
      }
    }
  }
}
MOTION
Frames:	4
Frame Time:	0.00833333
6.69632 83.9958 -164.801 0.0 0.0 0.0 -1.70022 -0.00276351 -0.046333 -0.469053 0.00196671 -0.0812258 5.73327e-15 0.0 -7.45443e-17 1.72725e-14 3.18055e-15 -2.76435e-16 -0.0 0.0 0.0 -0.0 0.0 0.0 2.98046e-15 -1.35888e-17 9.93923e-17 6.32028e-14 3.72721e-17 5.96354e-16 1.05371e-12 -3.25808e-13 -4.13472e-14 1.2089e-11 2.68334e-13 -1.01778e-13 2.85047e-11 -1.29317e-13 -2.83069e-13 4.92179e-11 -2.29e-13 -4.88215e-13 2.85089e-11 -1.26427e-13 -2.92611e-13 7.73091 5.47488 0.417314 2.85035e-11 -1.29608e-13 -2.8625e-13 2.90554 0.965183 0.102902 2.85176e-11 -1.2921e-13 -2.85455e-13 10.2786 0.731801 0.0259123 2.84978e-11 -1.28017e-13 -2.73528e-13 2.22167 -0.733487 -0.20892 2.88387e-15 -1.28123e-17 -1.98785e-16 6.00713e-14 -4.84538e-16 -1.39149e-15 1.05893e-12 3.04339e-13 -1.90833e-14 1.20857e-11 -3.69441e-13 -1.01778e-13 2.85172e-11 -1.40062e-13 -2.8943e-13 4.92549e-11 -2.41722e-13 -5.1525e-13 2.85121e-11 -1.41137e-13 -2.79889e-13 -7.73091 5.47488 -0.417314 2.85183e-11 -1.40441e-13 -2.98972e-13 -2.90554 0.965183 -0.102902 2.85163e-11 -1.40143e-13 -2.96587e-13 -10.2786 0.731801 -0.0259123 2.85262e-11 -1.35174e-13 -3.05333e-13 -2.22167 -0.733487 0.20892 -2.03217e-16 0.0 -3.88251e-19 -0.815187 -1.92421 -0.00353366 -0.00895504 -2.0786 -0.0737788 -0.474596 3.99777 0.134768 2.03217e-16 0.0 3.88251e-19 -1.77352 -6.84759 0.169529 -0.00326705 6.8397 -0.0864381 0.504644 0.00294473 -0.0573489
7.3754 82.8458 -163.556 2.2291 0.3422 -3.9849 -2.62369 3.34511 -0.814953 0.493871 -1.59119 -0.288439 -0.709328 -0.617117 -0.730592 0.909736 -2.15412 -1.1576 -0.0 0.0 0.0 -0.0 0.0 0.0 1.06871e-14 3.45037e-14 -8.04845e-15 22.4491 1.49272 0.449712 -3.46133 -1.44704 5.53518 0.00326416 1.28886 0.180983 -1.18379e-10 8.51844e-11 -3.35627e-10 -2.06045e-10 1.48e-10 -5.79759e-10 -1.18373e-10 8.51866e-11 -3.35637e-10 7.73091 5.47488 0.417314 -1.1838e-10 8.51847e-11 -3.35628e-10 2.90554 0.965183 0.102902 -1.18369e-10 8.51854e-11 -3.35628e-10 10.2786 0.731801 0.0259123 -1.18386e-10 8.51871e-11 -3.35619e-10 2.22167 -0.733487 -0.20892 1.06014e-14 3.4505e-14 -8.34896e-15 -20.0677 7.73598 -2.29583 4.02257 -1.79 -6.32339 -0.0098825 -2.21073 0.309871 -2.99547e-10 -1.60293e-10 1.25997e-10 -5.18755e-10 -2.78544e-10 2.16185e-10 -2.99556e-10 -1.60295e-10 1.2601e-10 -7.73091 5.47488 -0.417314 -2.99548e-10 -1.60295e-10 1.25993e-10 -2.90554 0.965183 -0.102902 -2.99553e-10 -1.60295e-10 1.25993e-10 -10.2786 0.731801 -0.0259123 -2.99541e-10 -1.60288e-10 1.25985e-10 -2.22167 -0.733487 0.20892 -2.03217e-16 0.0 -3.88251e-19 -1.21879 -10.3078 0.106218 0.0303035 8.57401 0.119329 -0.711909 2.49602 -3.91047 2.03217e-16 0.0 3.88251e-19 -3.58954 -5.79271 0.0602369 -0.0759656 11.9996 -0.288611 0.446228 -3.98972 -1.11099
7.37711 83.0629 -162.712 2.1968 0.5493 -3.797 -3.50677 6.8912 -1.63221 1.50249 -3.28772 -0.507069 -1.48753 -1.25073 -1.49874 1.7818 -4.42512 -2.37465 -0.0 0.0 0.0 -0.0 0.0 0.0 1.96961e-14 7.17544e-14 -1.70644e-14 46.1413 3.11651 0.93019 -6.82633 -2.93691 11.4114 -0.00218359 2.62427 0.368819 -2.87514e-10 1.73737e-10 -6.93074e-10 -4.99806e-10 3.01851e-10 -1.19714e-09 -2.87505e-10 1.73739e-10 -6.93086e-10 7.73091 5.47488 0.417314 -2.87516e-10 1.73738e-10 -6.93074e-10 2.90554 0.965183 0.102902 -2.87508e-10 1.73739e-10 -6.93075e-10 10.2786 0.731801 0.0259123 -2.87521e-10 1.73742e-10 -6.93069e-10 2.22167 -0.733487 -0.20892 1.96211e-14 7.17563e-14 -1.73688e-14 -40.6176 15.8557 -4.8257 7.83747 -3.60207 -13.0113 0.00573403 -4.52986 0.636502 -6.73794e-10 -3.62905e-10 2.51733e-10 -1.16664e-09 -6.30332e-10 4.31669e-10 -6.73807e-10 -3.62908e-10 2.51749e-10 -7.73091 5.47488 -0.417314 -6.73797e-10 -3.62909e-10 2.51734e-10 -2.90554 0.965183 -0.102902 -6.73805e-10 -3.62908e-10 2.51733e-10 -10.2786 0.731801 -0.0259123 -6.73792e-10 -3.62899e-10 2.51726e-10 -2.22167 -0.733487 0.20892 -2.03217e-16 0.0 -3.88251e-19 -1.60286 -19.189 0.186365 -0.0104484 20.0079 0.342976 -1.19134 0.928406 -8.16223 2.03217e-16 0.0 3.88251e-19 -5.51019 -4.73176 -0.0526324 -0.111802 17.5166 -0.514344 0.225911 -8.21466 -2.23205
7.34549 83.0677 -161.878 2.0491 0.6427 -3.5884 -4.19763 10.0333 -2.38451 2.38504 -4.7772 -0.704981 -2.17521 -1.85015 -2.19279 2.46684 -6.45176 -3.49251 -0.0 0.0 0.0 -0.0 0.0 0.0 2.61003e-14 1.03538e-13 -2.43441e-14 67.2769 4.47705 1.35281 -9.55639 -4.17935 16.6458 -0.0146818 3.86643 0.54405 -4.12146e-10 2.55812e-10 -1.00631e-09 -7.1657e-10 4.44458e-10 -1.7383e-09 -4.12135e-10 2.55813e-10 -1.00633e-09 7.73091 5.47488 0.417314 -4.12149e-10 2.55813e-10 -1.00631e-09 2.90554 0.965183 0.102902 -4.12143e-10 2.55815e-10 -1.00631e-09 10.2786 0.731801 0.0259123 -4.12154e-10 2.55818e-10 -1.00631e-09 2.22167 -0.733487 -0.20892 2.60366e-14 1.03541e-13 -2.46493e-14 -58.2113 23.0522 -7.42022 10.9025 -5.1089 -19.0394 0.0424978 -6.63142 0.935177 -9.55676e-10 -4.806e-10 3.78569e-10 -1.65477e-09 -8.35149e-10 6.49584e-10 -9.55692e-10 -4.80604e-10 3.78589e-10 -7.73091 5.47488 -0.417314 -9.55681e-10 -4.80605e-10 3.78576e-10 -2.90554 0.965183 -0.102902 -9.55691e-10 -4.80604e-10 3.78573e-10 -10.2786 0.731801 -0.0259123 -9.55677e-10 -4.80594e-10 3.78567e-10 -2.22167 -0.733487 0.20892 -2.03217e-16 0.0 -3.88251e-19 -1.9194 -27.0744 0.360028 -0.131257 29.878 0.578313 -1.81882 -0.479372 -11.9896 2.03217e-16 0.0 3.88251e-19 -7.20948 -3.68289 -0.157177 -0.103574 22.3183 -0.729951 -0.119302 -11.9582 -3.28149
